<svg xmlns="http://www.w3.org/2000/svg" width="47" height="47" viewBox="0 0 47 47">
  <g id="Group_40729" data-name="Group 40729" opacity="0.74">
    <g id="Group_40731" data-name="Group 40731">
      <path id="Ellipse_3" data-name="Ellipse 3" d="M23.5,0A23.5,23.5,0,1,1,0,23.5,23.5,23.5,0,0,1,23.5,0Z" fill="#d2746e"/>
      <path id="Shape_19" data-name="Shape 19" d="M935.422,215.944l-3.771-1.566a1.1,1.1,0,0,1-.6-1.368l1.848-5.526a1.022,1.022,0,0,1,1.318-.664,1.1,1.1,0,0,1,.633,1.383l-1.519,4.542,3.775,1.568a1.1,1.1,0,0,1,.592,1.373l-.943,2.777,3.879-4.753-3.351-1.393a1.1,1.1,0,0,1-.58-1.408,1.128,1.128,0,0,1,.059-.131l2.991-5.6h-4.624a1.086,1.086,0,0,1,0-2.169h6.388a1.06,1.06,0,0,1,1.033,1.085,1.126,1.126,0,0,1-.132.53l-3.274,6.13,3.6,1.5a1.113,1.113,0,0,1,.4,1.714L934.7,224.324a1.043,1.043,0,0,1-1.759-1.071l2.483-7.311Z" transform="translate(-913.699 -190.227)" fill="#fff"/>
    </g>
  </g>
</svg>
