<svg xmlns="http://www.w3.org/2000/svg" width="25.782" height="34.376" viewBox="0 0 25.782 34.376">
  <path id="file-lines-solid_1_" data-name="file-lines-solid (1)" d="M4.3,0A4.3,4.3,0,0,0,0,4.3V30.079a4.3,4.3,0,0,0,4.3,4.3H21.485a4.3,4.3,0,0,0,4.3-4.3V10.743H17.188A2.146,2.146,0,0,1,15.04,8.594V0ZM17.188,0V8.594h8.594ZM7.52,17.188H18.262a1.074,1.074,0,0,1,0,2.149H7.52a1.074,1.074,0,0,1,0-2.149Zm0,4.3H18.262a1.074,1.074,0,0,1,0,2.149H7.52a1.074,1.074,0,0,1,0-2.149Zm0,4.3H18.262a1.074,1.074,0,0,1,0,2.149H7.52a1.074,1.074,0,1,1,0-2.149Z" fill="#fff"/>
</svg>
