<svg xmlns="http://www.w3.org/2000/svg" width="24.333" height="20.857" viewBox="0 0 24.333 20.857">
  <g id="Group_40596" data-name="Group 40596" transform="translate(-1839 -519)">
    <path id="Icon" d="M1097.9-344a10.429,10.429,0,0,0-10.428,10.428H1084l4.507,4.507.081.162,4.681-4.67h-3.476a8.105,8.105,0,0,1,8.111-8.111,8.105,8.105,0,0,1,8.111,8.111,8.105,8.105,0,0,1-8.111,8.111,8.045,8.045,0,0,1-5.724-2.387l-1.646,1.645a10.375,10.375,0,0,0,7.369,3.059,10.429,10.429,0,0,0,10.428-10.428A10.429,10.429,0,0,0,1097.9-344Zm-1.159,5.794v5.794l4.959,2.943.834-1.4-4.055-2.41v-4.925Z" transform="translate(755 863)" fill="#ef4446" fill-rule="evenodd"/>
    <path id="Path_59762" data-name="Path 59762" d="M414.131,281.548c.007.727-.459,1.159-1.3,1.175-.724.014-1.45,0-2.174,0s-1.45.01-2.175,0a1.173,1.173,0,1,1,.029-2.323q2.145-.013,4.288,0C413.627,280.4,414.122,280.845,414.131,281.548Z" transform="translate(2134.213 116.853) rotate(90)" fill="#939191"/>
    <path id="Path_59763" data-name="Path 59763" d="M414.131,281.548c.007.727-.459,1.159-1.3,1.175-.724.014-1.45,0-2.174,0s-1.45.01-2.175,0a1.173,1.173,0,1,1,.029-2.323q2.145-.013,4.288,0C413.627,280.4,414.122,280.845,414.131,281.548Z" transform="matrix(0.848, 0.53, -0.53, 0.848, 1655.699, 75.111)" fill="#939191"/>
  </g>
</svg>
