<svg xmlns="http://www.w3.org/2000/svg" width="30.37" height="30.376" viewBox="0 0 30.37 30.376">
  <path id="magic-solid" d="M13.287,5.694l.949-1.9,1.9-.949-1.9-.949L13.287,0l-.949,1.9-1.9.949,1.9.949Zm-8.542,3.8L6.329,6.329,9.491,4.745,6.329,3.162,4.745,0,3.162,3.162,0,4.745,3.162,6.329Zm20.879,7.593-1.584,3.162-3.162,1.584,3.162,1.584,1.584,3.162,1.584-3.162,3.162-1.584-3.162-1.584Zm4.188-11.5L24.782.558A1.892,1.892,0,0,0,23.442,0,1.872,1.872,0,0,0,22.1.558L.558,22.1a1.9,1.9,0,0,0,0,2.687l5.036,5.036a1.89,1.89,0,0,0,2.681,0L29.812,8.275a1.894,1.894,0,0,0,0-2.681Zm-8.488,6.483L18.305,9.052l5.137-5.137,3.019,3.019Z" fill="#fff"/>
</svg>
