<svg xmlns="http://www.w3.org/2000/svg" width="22.749" height="22.749" viewBox="0 0 22.749 22.749">
  <path id="notes-medical-solid" d="M4.55,47.166V35.033A3.036,3.036,0,0,1,7.583,32H19.716a3.036,3.036,0,0,1,3.033,3.033v9.36a3.034,3.034,0,0,1-.886,2.147L19.09,49.313a3.034,3.034,0,0,1-2.147.886H7.583A3.036,3.036,0,0,1,4.55,47.166ZM12.891,36.55a.761.761,0,0,0-.758.758v2.275H9.858a.761.761,0,0,0-.758.758v1.517a.761.761,0,0,0,.758.758h2.275v2.275a.761.761,0,0,0,.758.758h1.517a.761.761,0,0,0,.758-.758V42.616h2.275a.761.761,0,0,0,.758-.758V40.341a.761.761,0,0,0-.758-.758H15.166V37.308a.761.761,0,0,0-.758-.758Zm1.137,15.924a1.137,1.137,0,0,1,0,2.275H6.446A6.446,6.446,0,0,1,0,48.3V37.687a1.137,1.137,0,1,1,2.275,0V48.3a4.171,4.171,0,0,0,4.171,4.171Z" transform="translate(0 -32)" fill="#fff"/>
</svg>
