<svg xmlns="http://www.w3.org/2000/svg" width="18.392" height="19.367" viewBox="0 0 18.392 19.367">
  <g id="Group_39027" data-name="Group 39027" transform="translate(-138.257 -2.779)">
    <path id="XMLID_232_" d="M8.872,1.221a.847.847,0,0,1,1.2,0l.862.862L12.768.247a.847.847,0,1,1,1.2,1.2L12.131,3.281l1.724,1.724.862-.862a.848.848,0,0,1,1.2,1.2l-.862.862L18.289,9.44a4.981,4.981,0,1,1-1.2,1.2l-3.829-3.83L13.255,6.8,13.249,6.8,10.342,3.889l-.009-.008-.008-.009L8.872,2.419A.847.847,0,0,1,8.872,1.221Zm9.965,14.612a3.285,3.285,0,1,0-.962-2.323A3.264,3.264,0,0,0,18.837,15.833Z" transform="translate(130.109 3.256)" fill="#fff" stroke="#fff" stroke-width="0.8"/>
  </g>
</svg>
