<svg xmlns="http://www.w3.org/2000/svg" width="31" height="17" viewBox="0 0 31 17">
  <g id="Group_40595" data-name="Group 40595" transform="translate(-2109 -573)">
    <path id="Icon" d="M273.605-298.208a2.751,2.751,0,0,1-2.691,2.792,2.21,2.21,0,0,1-.686-.1l-4.791,4.956c.067.223-1.359-.1-1.359-.1s.242.924-1.238.924-2.691,1.438-2.691-.1a2.551,2.551,0,0,1,.094-.726l-3.432-3.56a2.3,2.3,0,0,1-.7.1,2.3,2.3,0,0,1-.7-.1l-6.123,6.367a2.457,2.457,0,0,1,.094.712,2.751,2.751,0,0,1-2.691,2.792A2.751,2.751,0,0,1,244-287.038a2.751,2.751,0,0,1,2.691-2.792,2.209,2.209,0,0,1,.686.1l6.136-6.353a2.552,2.552,0,0,1-.094-.726,2.751,2.751,0,0,1,2.691-2.792,2.751,2.751,0,0,1,2.691,2.792,2.552,2.552,0,0,1-.094.726l3.432,3.56a2.3,2.3,0,0,1,.7-.1,2.3,2.3,0,0,1,.7.1l4.777-4.97a2.455,2.455,0,0,1-.094-.712A2.751,2.751,0,0,1,270.914-301a2.751,2.751,0,0,1,2.691,2.792Z" transform="translate(1865.529 874)" fill="#6f6f6f" fill-rule="evenodd"/>
    <ellipse id="Ellipse_1261" data-name="Ellipse 1261" cx="3.5" cy="3" rx="3.5" ry="3" transform="translate(2133 573)" fill="#ef4446"/>
    <circle id="Ellipse_1262" data-name="Ellipse 1262" cx="3" cy="3" r="3" transform="translate(2125 580)" fill="#ef4446"/>
    <circle id="Ellipse_1263" data-name="Ellipse 1263" cx="3" cy="3" r="3" transform="translate(2119 574)" fill="#ef4446"/>
    <circle id="Ellipse_1264" data-name="Ellipse 1264" cx="3" cy="3" r="3" transform="translate(2109 584)" fill="#ef4446"/>
  </g>
</svg>
