<svg xmlns="http://www.w3.org/2000/svg" width="46" height="46" viewBox="0 0 46 46">
  <g id="Group_40705" data-name="Group 40705" transform="translate(0.5 0.5)">
    <path id="Colour_BG" data-name="Colour BG" d="M6,0H39a6,6,0,0,1,6,6V39a6,6,0,0,1-6,6H6a6,6,0,0,1-6-6V6A6,6,0,0,1,6,0Z" fill="#fff" stroke="#989393" stroke-width="1"/>
    <path id="trash-solid" d="M19.648,1.455H14.19L13.763.6a1.092,1.092,0,0,0-.978-.6h-5.2a1.078,1.078,0,0,0-.973.6l-.428.85H.728A.728.728,0,0,0,0,2.183V3.638a.728.728,0,0,0,.728.728h18.92a.728.728,0,0,0,.728-.728V2.183A.728.728,0,0,0,19.648,1.455ZM2.42,21.239A2.183,2.183,0,0,0,4.6,23.286H15.777a2.183,2.183,0,0,0,2.179-2.046L18.92,5.821H1.455Z" transform="translate(12.312 10.857)" fill="#989393" stroke="#989393" stroke-width="1"/>
  </g>
</svg>
