<svg xmlns="http://www.w3.org/2000/svg" width="53.667" height="52.4" viewBox="0 0 53.667 52.4">
  <g id="Group_40711" data-name="Group 40711" transform="translate(1 1)">
    <g id="Group_40702" data-name="Group 40702">
      <g id="Group_40703" data-name="Group 40703">
        <g id="Group_40698" data-name="Group 40698">
          <g id="Group_40599" data-name="Group 40599">
            <g id="Normal">
              <rect id="Rectangle_17597" data-name="Rectangle 17597" width="51.667" height="50.4" rx="6" fill="#fff" stroke="#bd5750" stroke-width="2"/>
            </g>
          </g>
        </g>
      </g>
    </g>
    <path id="trash-solid" d="M19.648,1.455H14.19L13.763.6a1.092,1.092,0,0,0-.978-.6h-5.2a1.078,1.078,0,0,0-.973.6l-.428.85H.728A.728.728,0,0,0,0,2.183V3.638a.728.728,0,0,0,.728.728h18.92a.728.728,0,0,0,.728-.728V2.183A.728.728,0,0,0,19.648,1.455ZM2.42,21.239A2.183,2.183,0,0,0,4.6,23.286H15.777a2.183,2.183,0,0,0,2.179-2.046L18.92,5.821H1.455Z" transform="translate(15.646 13.557)" fill="#e1857f"/>
  </g>
</svg>
